<?xml version="1.0" standalone="no"?>
<!DOCTYPE svg PUBLIC "-//W3C//DTD SVG 20010904//EN"
 "http://www.w3.org/TR/2001/REC-SVG-20010904/DTD/svg10.dtd">
<svg version="1.0" xmlns="http://www.w3.org/2000/svg"
 width="1024.000000pt" height="1024.000000pt" viewBox="0 0 1024.000000 1024.000000"
 preserveAspectRatio="xMidYMid meet">
<metadata>
Created by potrace 1.14, written by Peter Selinger 2001-2017
</metadata>
<g transform="translate(0.000000,1024.000000) scale(0.100000,-0.100000)"
fill="#000000" stroke="none">
<path d="M4910 10133 c-273 -14 -564 -50 -779 -94 -720 -148 -1415 -460 -1996
-897 -643 -483 -1152 -1098 -1505 -1817 -512 -1043 -640 -2250 -359 -3380 183
-739 519 -1401 1013 -2000 124 -150 484 -510 636 -637 504 -417 1036 -713
1660 -921 547 -183 1207 -270 1790 -238 242 14 323 22 570 62 555 89 1166 306
1665 593 142 82 450 289 580 391 886 691 1513 1652 1784 2732 207 828 201
1667 -20 2496 -225 848 -678 1630 -1308 2257 -876 871 -2020 1381 -3251 1450
-171 9 -346 11 -480 3z m2820 -1698 c0 -14 -78 -520 -83 -538 -1 -5 -37 19
-80 53 -42 34 -81 60 -86 58 -5 -1 -297 -338 -651 -748 -353 -410 -652 -756
-665 -769 l-24 -24 -24 54 c-13 30 -36 79 -50 109 -15 30 -91 197 -171 370
-79 173 -148 315 -152 315 -8 0 -109 -135 -863 -1155 -453 -612 -505 -680
-513 -672 -3 4 -95 176 -204 382 -108 206 -199 378 -203 382 -3 4 -151 -214
-329 -485 l-322 -492 845 -3 845 -2 0 -150 0 -150 65 0 64 0 3 -152 3 -153 68
-3 67 -3 0 -154 0 -155 -70 0 -71 0 3 -147 3 -148 90 -5 90 -5 0 -150 0 -150
-42 -3 -42 -3 1 -150 c0 -119 3 -149 14 -149 11 0 14 -22 14 -99 0 -54 3 -118
6 -143 7 -51 -11 -78 -52 -78 l-24 0 0 -120 0 -120 60 0 60 0 0 147 c0 145 0
146 20 128 18 -16 20 -31 20 -147 l0 -128 65 0 64 0 3 123 3 122 103 3 102 3
0 144 0 145 -45 0 -45 0 0 160 0 160 24 0 c20 0 24 6 30 46 3 26 6 93 6 150 0
86 3 104 15 104 13 0 15 23 15 150 0 143 -1 150 -20 150 -19 0 -20 7 -20 160
l0 160 40 0 40 0 0 145 0 145 -65 0 -65 0 0 160 0 160 50 0 50 0 0 145 0 145
-50 0 -50 0 0 160 0 160 90 0 90 0 0 140 0 140 880 0 880 0 0 -150 0 -150 -42
-2 c-24 -1 -62 0 -85 1 l-43 3 0 -146 0 -146 45 0 45 0 0 -155 0 -155 -45 0
-45 0 0 -150 0 -150 60 0 60 0 0 -154 0 -154 -30 -7 c-16 -4 -34 -4 -40 0 -7
4 -10 -44 -10 -144 l0 -151 25 0 25 0 0 -160 c0 -153 -1 -160 -20 -160 -19 0
-20 -7 -20 -150 l0 -150 -25 0 -25 0 0 -150 0 -150 40 0 40 0 0 -155 0 -155
-100 0 -99 0 -3 -152 -3 -153 -882 -3 c-781 -2 -883 0 -883 13 0 12 -14 15
-65 15 -51 0 -65 -3 -65 -15 0 -8 -9 -15 -20 -15 -11 0 -20 7 -20 15 0 12 -13
15 -59 15 -33 0 -61 -5 -63 -10 -2 -7 -314 -11 -963 -10 -905 0 -966 1 -1060
19 -380 73 -690 357 -785 719 -11 42 -23 102 -26 132 -3 30 -8 66 -10 79 -5
25 -19 5 -506 -739 l-138 -210 -116 0 -116 0 14 23 c36 54 507 773 715 1089
125 191 575 876 998 1522 424 647 774 1174 778 1173 5 -1 102 -179 215 -394
114 -216 210 -391 213 -390 4 1 208 274 455 607 246 333 518 700 603 815 86
116 192 258 236 318 44 59 82 107 86 107 6 0 39 -69 306 -649 56 -123 104
-225 105 -227 2 -1 57 61 123 138 66 78 125 146 130 152 68 72 885 1027 885
1033 -1 4 -30 30 -65 58 -36 27 -61 52 -57 56 4 3 68 29 142 57 74 29 187 72
250 96 132 51 130 51 130 31z"/>
<path d="M3125 4993 c-60 -91 -119 -179 -129 -195 l-19 -29 38 16 c65 26 186
54 273 61 l82 7 0 53 0 54 -65 0 -64 0 -3 99 -3 99 -110 -165z"/>
</g>
</svg>
